<svg xmlns="http://www.w3.org/2000/svg" width="40" height="40" viewBox="0 0 40 40">
  <path id="path2" d="M106.791,36.176,104.41,26.82a19.686,19.686,0,0,0,2.381-9.441A19.987,19.987,0,1,0,86.8,37.367a19.686,19.686,0,0,0,9.441-2.381l9.356,2.381a1.011,1.011,0,0,0,1.191-1.191Zm-2.551-18.8a17.073,17.073,0,0,1-2.211,8.505,1.87,1.87,0,0,0-.17,1.191l1.786,7.144-7.059-1.786a1.447,1.447,0,0,0-1.191.17,17.213,17.213,0,0,1-8.505,2.211A17.435,17.435,0,1,1,104.24,17.38Z" transform="translate(-66.817 2.607)" fill="#262626" fill-rule="evenodd"/>
</svg>
