<svg xmlns="http://www.w3.org/2000/svg" width="34.968" height="40" viewBox="0 0 34.968 40">
  <g id="g841" transform="translate(-2.498)">
    <path id="path830" d="M36.216,39.963a1.746,1.746,0,0,1-.916-.333L19.981,24.144,4.662,39.63a1.151,1.151,0,0,1-1.332.25A1.252,1.252,0,0,1,2.5,38.714V1.249A1.28,1.28,0,0,1,3.747,0h32.47a1.28,1.28,0,0,1,1.249,1.249V38.714a1.306,1.306,0,0,1-.749,1.166A1.056,1.056,0,0,1,36.216,39.963ZM19.981,21.647a2.583,2.583,0,0,1,1.832.749L34.968,35.717V2.5H5V35.717L18.15,22.4A2.583,2.583,0,0,1,19.981,21.647Z" fill="#262626"/>
  </g>
</svg>
