<svg xmlns="http://www.w3.org/2000/svg" width="38.247" height="40" viewBox="0 0 38.247 40">
  <g id="g990" transform="translate(-0.833 0.042)">
    <path id="path988" d="M37.711,39.959H24.974a1.28,1.28,0,0,1-1.249-1.249V28.47a3.829,3.829,0,0,0-7.659,0V38.71a1.28,1.28,0,0,1-1.249,1.249H2.081A1.28,1.28,0,0,1,.832,38.71V19.147a1.746,1.746,0,0,1,.333-.916l17.9-17.9a1.207,1.207,0,0,1,1.748,0l17.9,17.9a1.151,1.151,0,0,1,.25,1.332c0,.083-.083.083-.083.166V38.71A1.158,1.158,0,0,1,37.711,39.959Z" fill="#262626"/>
  </g>
</svg>
