<svg xmlns="http://www.w3.org/2000/svg" width="46.043" height="40" viewBox="0 0 46.043 40">
  <g id="g932" transform="translate(214.787 15.658)">
    <path id="path921" d="M-181.6-12.78c5.468,0,9.976,4.988,9.976,11.031,0,6.523-5.659,10.552-11.031,15.348s-8.153,7.386-9.113,7.962c-1.055-.671-4.508-3.837-9.113-7.962-5.468-4.8-11.031-8.825-11.031-15.348,0-6.043,4.508-11.031,9.976-11.031a8.786,8.786,0,0,1,7.77,4.125c1.823,2.494,2.11,3.741,2.4,3.741s.576-1.247,2.4-3.741a8.786,8.786,0,0,1,7.77-4.125m0-2.878a11.694,11.694,0,0,0-10.168,5.372,11.825,11.825,0,0,0-10.168-5.276c-7.1-.1-12.854,6.139-12.854,13.813,0,7,5.18,11.511,10.168,15.827.576.48,1.247,1.055,1.823,1.631l2.206,1.918c4.221,3.741,6.331,5.659,7.29,6.235a3.184,3.184,0,0,0,1.535.48,2.9,2.9,0,0,0,1.535-.48c.959-.576,2.686-2.11,7.482-6.523l1.918-1.727c.671-.576,1.247-1.151,1.918-1.631,5.084-4.221,10.168-8.633,10.168-15.731,0-7.674-5.755-13.909-12.854-13.909Z" fill="#262626"/>
  </g>
</svg>
