<svg xmlns="http://www.w3.org/2000/svg" width="40" height="40" viewBox="0 0 40 40">
  <g id="g906" transform="translate(11.094 -21.822)">
    <path id="path895" d="M8.906,21.822a20,20,0,0,0,0,40,20,20,0,0,0,0-40Zm0,37.5a17.5,17.5,0,1,1,17.5-17.5,17.5,17.5,0,0,1-17.5,17.5Zm8.5-27.667L5.073,37.488a1.007,1.007,0,0,0-.583.583L-1.344,50.405a1.134,1.134,0,0,0,.25,1.417,1.253,1.253,0,0,0,.917.333,1.057,1.057,0,0,0,.5-.083l12.333-5.833a1.007,1.007,0,0,0,.583-.583l5.833-12.333a1.254,1.254,0,0,0-1.667-1.667Zm-6.167,12.5L6.656,39.572l8.75-4.167Z" fill="#262626" fill-rule="evenodd"/>
  </g>
</svg>
